Coordinates
version=1
nRows=24
nColumns=38
inDegrees=no

Units are S.I. units (second, meters, Newtons, ...)
If the header above contains a line with 'inDegrees', this indicates whether rotational values are in degrees (yes) or radians (no).

endheader
time	pelvis_tilt	pelvis_list	pelvis_rotation	pelvis_tx	pelvis_ty	pelvis_tz	hip_flexion_r	hip_adduction_r	hip_rotation_r	knee_angle_r	ankle_angle_r	subtalar_angle_r	mtp_angle_r	hip_flexion_l	hip_adduction_l	hip_rotation_l	knee_angle_l	ankle_angle_l	subtalar_angle_l	mtp_angle_l	lumbar_extension	lumbar_bending	lumbar_rotation	arm_flex_r	arm_add_r	arm_rot_r	elbow_flex_r	pro_sup_r	wrist_flex_r	wrist_dev_r	arm_flex_l	arm_add_l	arm_rot_l	elbow_flex_l	pro_sup_l	wrist_flex_l	wrist_dev_l
1.09	2.42164	1.44464	-0.536867	0.684878	0.89566	1.04391	0.0419632	0.0987779	-0.483642	0.168281	-0.112922	0	0	-0.0194763	-0.188541	0.0420317	1.12123	-0.269722	0	0	-0.525314	0.21919	-0.127148	-0.103667	-0.3718	0.264268	0.842286	0.998183	0	0	-0.0398386	-0.563729	0.0784214	0.983191	1.18952	0	0
1.1	2.49962	1.43925	-0.616758	0.684293	0.908629	1.04711	-0.000173188	0.106355	-0.544294	0.125255	-0.141724	0	0	-0.00960427	-0.189615	0.0250864	1.13815	-0.226946	0	0	-0.537587	0.215861	-0.124439	-0.102235	-0.37517	0.267332	0.844579	1.00073	0	0	-0.0425531	-0.559386	0.078736	0.972384	1.19057	0	0
1.11	2.52591	1.43852	-0.652135	0.684937	0.921455	1.04942	0.0547864	0.0601936	-0.536865	0.348867	-0.0660061	0	0	0.00847414	-0.192286	5.91933e-05	1.15198	-0.179628	0	0	-0.542148	0.207952	-0.116231	-0.101302	-0.376489	0.268633	0.845083	1.00351	0	0	-0.0461894	-0.556214	0.0801238	0.962439	1.19075	0	0
1.12	2.56401	1.43961	-0.699856	0.684758	0.933773	1.05184	0.0352208	0.0632586	-0.519744	0.33607	-0.0638288	0	0	0.0258047	-0.189422	-0.0241145	1.15846	-0.136929	0	0	-0.54753	0.199819	-0.105519	-0.105227	-0.378293	0.258341	0.85076	1.01348	0	0	-0.0436238	-0.551682	0.0896378	0.949885	1.18897	0	0
1.13	2.60784	1.44018	-0.753528	0.68436	0.945999	1.05433	0.0154093	0.0647262	-0.508264	0.324984	-0.0655516	0	0	0.0414416	-0.187097	-0.0515674	1.15668	-0.118561	0	0	-0.553277	0.190424	-0.1022	-0.0985234	-0.384768	0.27231	0.851138	1.00551	0	0	-0.0523205	-0.546028	0.0825317	0.944788	1.19288	0	0
1.14	2.82339	1.49109	-0.984214	0.684603	0.959448	1.04864	0.00480859	0.0339003	-0.272933	0.265874	-0.0206581	0	0	0.0885348	-0.131649	-0.0848059	1.1656	-0.0776402	0	0	-0.510484	0.131619	-0.114551	-0.122059	-0.378572	0.262383	0.864383	1.01474	0	0	-0.0760269	-0.560323	0.094495	0.949376	1.17942	0	0
1.15	2.89666	1.48726	-1.07067	0.684278	0.971683	1.051	-0.00789117	0.0317714	-0.25731	0.2793	-0.0127764	0	0	0.100098	-0.139944	-0.142548	1.15262	-0.0607131	0	0	-0.5195	0.125119	-0.0962073	-0.134057	-0.380724	0.239332	0.879346	1.03501	0	0	-0.0676162	-0.557871	0.11661	0.938099	1.1726	0	0
1.16	2.95957	1.47953	-1.14606	0.683773	0.984103	1.05373	-0.030799	0.0311411	-0.255753	0.279189	-0.0166077	0	0	0.106747	-0.156334	-0.218857	1.13169	-0.0536026	0	0	-0.531216	0.118786	-0.0871246	-0.132657	-0.387914	0.244922	0.886589	1.0333	0	0	-0.0732709	-0.554488	0.118649	0.935583	1.17115	0	0
1.17	3.07652	1.4799	-1.27086	0.683546	0.996902	1.0542	-0.0746319	0.0310261	-0.256056	0.218776	-0.0325526	0	0	0.118532	-0.158474	-0.265518	1.11241	-0.0441137	0	0	-0.531728	0.105452	-0.0796301	-0.14681	-0.389527	0.232385	0.903093	1.03416	0	0	-0.0748636	-0.560575	0.140274	0.933846	1.15966	0	0
1.18	2.85359	1.40916	-1.03932	0.681704	1.00842	1.06632	-0.163332	0.0344065	-0.647482	0.253234	-0.127131	0	0	0.0726746	-0.233655	-0.296796	1.0667	-0.0556536	0	0	-0.606978	0.165359	-0.0537223	-0.13035	-0.405905	0.234528	0.910674	1.03249	0	0	-0.0525276	-0.54358	0.147832	0.919852	1.16625	0	0
1.19	-2.41417	1.51331	-2.0918	0.685564	1.02228	1.04585	-0.164898	0.00696257	-0.21909	0	-0.0865186	0	0	0.190026	-0.120848	-0.350422	1.07818	-0.0209504	0	0	-0.474504	0.0339236	-0.0799236	-0.179612	-0.381599	0.221168	0.932076	1.03874	0	0	-0.11536	-0.586519	0.154954	0.953674	1.14829	0	0
1.2	2.88533	1.40342	-1.082	0.679767	1.03229	1.06954	-0.210228	0.0433526	-0.642225	0.220038	-0.140133	0	0	0.0890124	-0.241141	-0.356993	0.999059	-0.0500745	0	0	-0.617615	0.158941	-0.0444107	-0.132716	-0.41565	0.237154	0.925915	1.03334	0	0	-0.0602259	-0.540164	0.156596	0.917365	1.17457	0	0
1.21	3.0815	1.45307	-1.29599	0.679546	1.04463	1.06278	-0.180758	0.0464054	-0.299868	0.160007	-0.0794429	0	0	0.139126	-0.190415	-0.390348	0.970992	-0.0373797	0	0	-0.567869	0.106115	-0.0535267	-0.150662	-0.409208	0.229058	0.93436	1.04033	0	0	-0.0803913	-0.550653	0.163447	0.924278	1.1723	0	0
1.22	3.03639	1.44368	-1.25461	0.677609	1.05583	1.06579	-0.186269	0.0464252	-0.303681	0.192558	-0.07808	0	0	0.139929	-0.197803	-0.412871	0.920256	-0.0395977	0	0	-0.581151	0.113819	-0.046635	-0.144637	-0.415902	0.230905	0.936776	1.04199	0	0	-0.0787729	-0.542838	0.164527	0.919718	1.17653	0	0
1.23	3.06551	1.44449	-1.29026	0.676492	1.06764	1.06619	-0.205769	0.0433951	-0.301605	0.177578	-0.0805746	0	0	0.146412	-0.193492	-0.442653	0.869624	-0.0472805	0	0	-0.583451	0.107235	-0.0422885	-0.147658	-0.41823	0.226283	0.94506	1.04629	0	0	-0.0834945	-0.539372	0.160772	0.920941	1.18729	0	0
1.24	3.09654	1.44706	-1.32693	0.675252	1.07951	1.06614	-0.221648	0.0388742	-0.299791	0.167002	-0.0819511	0	0	0.154006	-0.186382	-0.468843	0.815543	-0.0514274	0	0	-0.582084	0.09997	-0.0404578	-0.148822	-0.420421	0.226241	0.949865	1.04818	0	0	-0.0893275	-0.538371	0.16104	0.922315	1.18951	0	0
1.25	3.11629	1.44828	-1.3515	0.673806	1.09131	1.06619	-0.238181	0.03605	-0.297744	0.157144	-0.084621	0	0	0.159581	-0.178987	-0.492391	0.756889	-0.0589062	0	0	-0.582683	0.0949391	-0.0382636	-0.149043	-0.422699	0.225491	0.954023	1.04953	0	0	-0.093938	-0.536154	0.159871	0.923093	1.19325	0	0
1.26	3.13216	1.4502	-1.37232	0.672407	1.10306	1.06596	-0.252928	0.0327868	-0.298437	0.149245	-0.0878533	0	0	0.165004	-0.169838	-0.512971	0.694456	-0.0699927	0	0	-0.583051	0.0899779	-0.0353887	-0.149123	-0.424905	0.224641	0.957927	1.05081	0	0	-0.0977117	-0.53375	0.157979	0.923655	1.19838	0	0
1.27	-3.13568	1.45263	-1.3923	0.670957	1.11483	1.06542	-0.267471	0.0293156	-0.299339	0.140731	-0.0908677	0	0	0.169918	-0.158366	-0.529947	0.62847	-0.0825679	0	0	-0.582981	0.085107	-0.0324584	-0.149154	-0.427093	0.223661	0.96117	1.05259	0	0	-0.101005	-0.531273	0.155464	0.924125	1.2048	0	0
1.28	-3.12122	1.4558	-1.41101	0.669413	1.12664	1.06456	-0.280296	0.0256989	-0.300502	0.133853	-0.0931287	0	0	0.174592	-0.144377	-0.54179	0.558914	-0.0955585	0	0	-0.582273	0.0804001	-0.0296248	-0.149262	-0.429028	0.222414	0.963884	1.0544	0	0	-0.103832	-0.528852	0.152498	0.924631	1.21197	0	0
1.29	-3.11088	1.46018	-1.42508	0.667799	1.13847	1.06332	-0.291796	0.0225649	-0.300762	0.126907	-0.0943781	0	0	0.179795	-0.128168	-0.546314	0.486231	-0.108007	0	0	-0.580348	0.0762376	-0.0268542	-0.149513	-0.43084	0.221028	0.96621	1.05586	0	0	-0.106135	-0.526671	0.14985	0.924851	1.22027	0	0
1.3	-3.10608	1.46637	-1.43266	0.666077	1.15028	1.06169	-0.301146	0.0200757	-0.300031	0.120315	-0.0946363	0	0	0.186263	-0.109473	-0.53979	0.4104	-0.120968	0	0	-0.576586	0.0728192	-0.0242711	-0.149667	-0.432385	0.219908	0.967417	1.05756	0	0	-0.10778	-0.524351	0.146909	0.924533	1.23199	0	0
1.31	-3.11476	1.47483	-1.42595	0.664259	1.16214	1.05956	-0.307031	0.0187806	-0.29886	0.115665	-0.092589	0	0	0.194782	-0.090098	-0.520282	0.334015	-0.131612	0	0	-0.570277	0.0705435	-0.0228467	-0.148815	-0.433498	0.219872	0.966997	1.05775	0	0	-0.111541	-0.519699	0.13645	0.924369	1.25444	0	0
1.32	3.1413	1.48352	-1.40012	0.662434	1.17402	1.05704	-0.312622	0.019153	-0.297301	0.110618	-0.0919177	0	0	0.202874	-0.0721947	-0.490407	0.259564	-0.129739	0	0	-0.562999	0.0700406	-0.0203482	-0.149262	-0.435192	0.219657	0.967204	1.0577	0	0	-0.113584	-0.518028	0.134208	0.92464	1.26434	0	0
